<svg xmlns="http://www.w3.org/2000/svg" width="720" height="240" viewBox="0 0 720 240"><defs><radialGradient id="p" cx=".3" cy=".25"><stop stop-color="#efdab1"/><stop offset=".7" stop-color="#a88961"/><stop offset="1" stop-color="#3b3343"/></radialGradient></defs><rect width="720" height="240" fill="#0b1120"/><g transform="translate(365 120) rotate(-22)"><ellipse rx="190" ry="57" fill="none" stroke="#b9a17e" stroke-width="25"/><ellipse rx="168" ry="50" fill="none" stroke="#736958" stroke-width="8"/><circle r="76" fill="url(#p)"/><path d="M-68 -32 Q0 -18 68 -32 M-75 -5 Q0 8 75 -5 M-69 28 Q0 40 69 28" fill="none" stroke="#edcca0" stroke-width="7" opacity=".35"/><path d="M-190 0 A190 57 0 0 0 190 0" fill="none" stroke="#ccb28a" stroke-width="25"/><path d="M-168 0 A168 50 0 0 0 168 0" fill="none" stroke="#736958" stroke-width="8"/><circle cx="125.00" cy="0.00" r="2.3" fill="#9ae3ef"/><circle cx="155.00" cy="0.00" r="2.3" fill="#9ae3ef"/><circle cx="185.00" cy="0.00" r="2.3" fill="#9ae3ef"/><circle cx="115.48" cy="14.35" r="2.3" fill="#9ae3ef"/><circle cx="143.20" cy="17.79" r="2.3" fill="#9ae3ef"/><circle cx="170.92" cy="21.24" r="2.3" fill="#9ae3ef"/><circle cx="88.39" cy="26.52" r="2.3" fill="#9ae3ef"/><circle cx="109.60" cy="32.88" r="2.3" fill="#9ae3ef"/><circle cx="130.81" cy="39.24" r="2.3" fill="#9ae3ef"/><circle cx="47.84" cy="34.65" r="2.3" fill="#9ae3ef"/><circle cx="59.32" cy="42.96" r="2.3" fill="#9ae3ef"/><circle cx="70.80" cy="51.28" r="2.3" fill="#9ae3ef"/><circle cx="0.00" cy="37.50" r="2.3" fill="#9ae3ef"/><circle cx="0.00" cy="46.50" r="2.3" fill="#9ae3ef"/><circle cx="0.00" cy="55.50" r="2.3" fill="#9ae3ef"/><circle cx="-47.84" cy="34.65" r="2.3" fill="#9ae3ef"/><circle cx="-59.32" cy="42.96" r="2.3" fill="#9ae3ef"/><circle cx="-70.80" cy="51.28" r="2.3" fill="#9ae3ef"/><circle cx="-88.39" cy="26.52" r="2.3" fill="#9ae3ef"/><circle cx="-109.60" cy="32.88" r="2.3" fill="#9ae3ef"/><circle cx="-130.81" cy="39.24" r="2.3" fill="#9ae3ef"/><circle cx="-115.48" cy="14.35" r="2.3" fill="#9ae3ef"/><circle cx="-143.20" cy="17.79" r="2.3" fill="#9ae3ef"/><circle cx="-170.92" cy="21.24" r="2.3" fill="#9ae3ef"/><circle cx="-125.00" cy="0.00" r="2.3" fill="#9ae3ef"/><circle cx="-155.00" cy="0.00" r="2.3" fill="#9ae3ef"/><circle cx="-185.00" cy="0.00" r="2.3" fill="#9ae3ef"/><circle cx="-115.48" cy="-14.35" r="2.3" fill="#9ae3ef"/><circle cx="-143.20" cy="-17.79" r="2.3" fill="#9ae3ef"/><circle cx="-170.92" cy="-21.24" r="2.3" fill="#9ae3ef"/><circle cx="-88.39" cy="-26.52" r="2.3" fill="#9ae3ef"/><circle cx="-109.60" cy="-32.88" r="2.3" fill="#9ae3ef"/><circle cx="-130.81" cy="-39.24" r="2.3" fill="#9ae3ef"/><circle cx="-47.84" cy="-34.65" r="2.3" fill="#9ae3ef"/><circle cx="-59.32" cy="-42.96" r="2.3" fill="#9ae3ef"/><circle cx="-70.80" cy="-51.28" r="2.3" fill="#9ae3ef"/><circle cx="-0.00" cy="-37.50" r="2.3" fill="#9ae3ef"/><circle cx="-0.00" cy="-46.50" r="2.3" fill="#9ae3ef"/><circle cx="-0.00" cy="-55.50" r="2.3" fill="#9ae3ef"/><circle cx="47.84" cy="-34.65" r="2.3" fill="#9ae3ef"/><circle cx="59.32" cy="-42.96" r="2.3" fill="#9ae3ef"/><circle cx="70.80" cy="-51.28" r="2.3" fill="#9ae3ef"/><circle cx="88.39" cy="-26.52" r="2.3" fill="#9ae3ef"/><circle cx="109.60" cy="-32.88" r="2.3" fill="#9ae3ef"/><circle cx="130.81" cy="-39.24" r="2.3" fill="#9ae3ef"/><circle cx="115.48" cy="-14.35" r="2.3" fill="#9ae3ef"/><circle cx="143.20" cy="-17.79" r="2.3" fill="#9ae3ef"/><circle cx="170.92" cy="-21.24" r="2.3" fill="#9ae3ef"/></g></svg>
